<svg width="671" height="671" viewBox="0 0 671 671" fill="none" xmlns="http://www.w3.org/2000/svg">
<g clip-path="url(#clip0_9_50)">
<path d="M427.48 336.051V624.887C427.48 650.422 334.332 671.1 219.518 671.1C104.699 671.1 11.5566 650.422 11.5566 624.887V329.899L427.48 336.051Z" fill="#2980BA"/>
<path d="M329.391 352.922C292.919 357.176 256.234 359.261 219.517 359.157C124.086 359.157 42.749 346.333 12.5907 328.313C4.38931 323.575 0 318.374 0 312.945V266.732C0 275.168 28.3433 255.218 47.1747 261.916C100.808 284.581 158.405 296.36 216.626 296.578C241.698 296.578 306.742 275.09 329.271 273.472L330.311 337.783C326.182 341.855 325.787 348.382 329.391 352.922Z" fill="#A5A5A4"/>
<path d="M656.961 468.64L640.938 484.658C632.05 493.707 619.808 498.663 607.129 498.357C594.444 498.055 582.457 492.506 574.016 483.041C541.726 445.596 535.028 382.55 477.795 370.053L478.507 303.324L542.345 305.497C554.847 362.735 617.889 369.428 655.338 401.719C664.803 410.165 670.347 422.152 670.654 434.831C670.961 447.51 666.005 459.747 656.961 468.64Z" fill="#E64C3C"/>
<path d="M294.614 268.896C291.494 268.781 227.688 294.894 224.572 294.894C143.464 294.894 67.4726 275.974 29.5758 289.839C10.7444 283.135 0 275.168 0 266.732C0 244.547 74.2906 226.064 173.3 221.555C173.185 225.252 243.607 221.097 246.956 223.406L294.614 268.896Z" fill="#7F8284"/>
<path d="M269.001 524.1C275.933 540.091 274.981 558.408 266.431 573.594C257.887 588.785 242.722 599.103 225.456 601.479C221.503 601.88 217.525 601.88 213.573 601.479C196.307 599.103 181.147 588.785 172.597 573.594C164.047 558.408 163.096 540.091 170.028 524.1L178.848 502.881L208.85 428.481C210.65 424.175 214.852 421.372 219.517 421.372C224.177 421.372 228.384 424.175 230.178 428.481L260.186 502.881L269.001 524.1Z" fill="#285680"/>
<path d="M57.7686 416.926C51.3875 416.926 46.2129 411.751 46.2129 405.37V393.819C46.2129 387.438 51.3875 382.264 57.7686 382.264C64.1498 382.264 69.3192 387.438 69.3192 393.819V405.37C69.3192 411.751 64.1498 416.926 57.7686 416.926Z" fill="#9FC9D3"/>
<path d="M57.7686 613.337C51.3875 613.337 46.2129 608.162 46.2129 601.781V451.588C46.2129 445.206 51.3875 440.032 57.7686 440.032C64.1498 440.032 69.3192 445.206 69.3192 451.588V601.781C69.3192 608.162 64.1498 613.337 57.7686 613.337Z" fill="#9FC9D3"/>
<path d="M291.265 310.402C268.731 312.019 244.585 312.945 219.518 312.945C138.409 312.945 67.473 303.703 29.5762 289.838C67.473 275.974 138.409 266.732 219.518 266.732C222.633 266.732 225.868 266.732 228.988 266.847L291.265 310.402Z" fill="#603E26"/>
<path d="M510.086 158.014L443.846 279.245L330.312 337.783L291.266 310.402L228.988 266.847L178.272 231.264C175.464 229.33 173.659 226.251 173.347 222.86C173.035 219.469 174.247 216.11 176.655 213.702L209.814 180.543C213.449 176.902 219.05 176.101 223.559 178.577L289.529 215.205L252.906 149.349C250.394 144.825 251.143 139.193 254.752 135.485L305.822 84.5344L322.11 68.1265L386 4.35147C388.413 1.94359 391.767 0.731851 395.163 1.04389C398.554 1.35592 401.633 3.16053 403.562 5.96886L510.086 158.014Z" fill="#CBB292"/>
<path d="M403.1 183.2C401.05 184.979 398.424 185.967 395.704 185.972C392.277 185.941 389.032 184.422 386.811 181.812L305.822 84.5344L322.111 68.1265C322.407 68.3657 322.677 68.6361 322.922 68.9378L404.603 167.026C408.633 171.915 407.962 179.139 403.1 183.2Z" fill="#A59078"/>
<path d="M599.973 247.901L420.198 427.67C418.04 429.834 415.112 431.051 412.054 431.051C408.996 431.051 406.068 429.834 403.91 427.67L330.311 354.076C329.942 353.744 329.63 353.354 329.39 352.922C325.786 348.382 326.182 341.855 330.311 337.783L510.085 158.014C512.244 155.85 515.172 154.633 518.229 154.633C521.287 154.633 524.215 155.85 526.374 158.014L599.973 231.607C602.136 233.766 603.348 236.699 603.348 239.752C603.348 242.81 602.136 245.743 599.973 247.901Z" fill="#7F8284"/>
<path d="M387.528 357.488C382.853 357.488 378.64 354.674 376.851 350.358C375.068 346.041 376.056 341.07 379.358 337.767L387.528 329.597C392.053 325.182 399.287 325.229 403.759 329.701C408.232 334.174 408.279 341.408 403.863 345.937L395.693 354.102C393.53 356.276 390.591 357.493 387.528 357.488Z" fill="#A5A5A4"/>
<path d="M428.374 316.642C423.704 316.642 419.492 313.824 417.703 309.507C415.914 305.191 416.902 300.224 420.204 296.922L510.065 207.055C512.967 204.06 517.258 202.864 521.294 203.925C525.324 204.98 528.476 208.132 529.536 212.162C530.592 216.198 529.396 220.489 526.406 223.39L436.545 313.257C434.381 315.426 431.438 316.648 428.374 316.642Z" fill="#A5A5A4"/>
</g>
<defs>
<clipPath id="clip0_9_50">
<rect width="670.667" height="670.667" fill="white"/>
</clipPath>
</defs>
</svg>
