<svg width="330" height="240" viewBox="0 0 330 240" fill="none" xmlns="http://www.w3.org/2000/svg">
<path d="M284.943 0H44.991C20.282 0 0 20.116 0 44.991V194.961C0 219.769 20.183 239.952 44.991 239.952H284.943C309.751 239.952 329.934 219.769 329.934 194.961V44.991C329.934 20.282 309.818 0 284.943 0ZM278.732 29.994L175.572 133.154C169.723 139.001 160.212 139.001 154.363 133.154L51.204 29.994H278.732ZM29.994 188.711V51.203L98.748 119.956L29.994 188.711ZM51.164 209.959L119.957 141.166L133.154 154.363C141.924 163.134 153.446 167.519 164.967 167.519C176.488 167.519 188.009 163.134 196.78 154.363L209.977 141.166L278.77 209.959H51.164ZM299.94 188.711L231.186 119.957L299.94 51.203V188.711Z" fill="black"/>
</svg>
