<svg width="481" height="480" viewBox="0 0 481 480" fill="none" xmlns="http://www.w3.org/2000/svg">
<path d="M240.009 0.000261573C198.241 -0.0614418 157.182 10.7944 120.902 31.4917C84.623 52.189 54.383 82.0089 33.1802 117.995C11.9774 153.982 0.548219 194.885 0.0256245 236.65C-0.49697 278.414 9.90519 319.591 30.2009 356.096L0.616893 459.6C-0.0644583 461.982 -0.183283 464.49 0.26978 466.926C0.722844 469.362 1.73542 471.659 3.2277 473.637C4.71999 475.615 6.65121 477.219 8.86918 478.323C11.0871 479.428 13.5313 480.002 16.0089 480C17.4924 480 18.9684 479.79 20.3929 479.376L123.897 449.808C155.937 467.551 191.614 477.722 228.193 479.543C264.772 481.365 301.283 474.787 334.927 460.315C368.571 445.843 398.455 423.861 422.289 396.053C446.123 368.244 463.274 335.349 472.428 299.887C481.583 264.425 482.496 227.337 475.1 191.468C467.704 155.598 452.193 121.897 429.758 92.949C407.322 64.0008 378.557 40.5732 345.666 24.4618C312.776 8.35038 276.633 -0.0172324 240.009 0.000261573ZM240.009 448C202.754 447.945 166.201 437.865 134.185 418.816C131.711 417.348 128.886 416.574 126.009 416.576C124.526 416.571 123.05 416.775 121.625 417.184L39.3049 440.704L62.8249 358.4C63.4267 356.308 63.5953 354.115 63.3202 351.955C63.045 349.796 62.3321 347.715 61.2249 345.84C37.9128 306.362 28.3086 260.283 33.9077 214.778C39.5068 169.273 59.9951 126.897 92.1822 94.2474C124.369 61.5977 166.449 40.507 211.869 34.2592C257.289 28.0114 303.501 36.9572 343.308 59.7037C383.115 82.4502 414.284 117.721 431.961 160.023C449.639 202.326 452.833 249.287 441.046 293.594C429.259 337.9 403.153 377.066 366.792 404.993C330.431 432.92 285.857 448.041 240.009 448Z" fill="black"/>
<path d="M336.009 224H144.009C139.765 224 135.696 225.686 132.695 228.686C129.695 231.687 128.009 235.757 128.009 240C128.009 244.243 129.695 248.313 132.695 251.314C135.696 254.314 139.765 256 144.009 256H336.009C340.252 256 344.322 254.314 347.323 251.314C350.323 248.313 352.009 244.243 352.009 240C352.009 235.757 350.323 231.687 347.323 228.686C344.322 225.686 340.252 224 336.009 224Z" fill="black"/>
<path d="M336.009 144H144.009C139.765 144 135.696 145.686 132.695 148.686C129.695 151.687 128.009 155.757 128.009 160C128.009 164.243 129.695 168.313 132.695 171.314C135.696 174.314 139.765 176 144.009 176H336.009C340.252 176 344.322 174.314 347.323 171.314C350.323 168.313 352.009 164.243 352.009 160C352.009 155.757 350.323 151.687 347.323 148.686C344.322 145.686 340.252 144 336.009 144Z" fill="black"/>
<path d="M336.009 304H144.009C139.765 304 135.696 305.686 132.695 308.686C129.695 311.687 128.009 315.757 128.009 320C128.009 324.243 129.695 328.313 132.695 331.314C135.696 334.314 139.765 336 144.009 336H336.009C340.252 336 344.322 334.314 347.323 331.314C350.323 328.313 352.009 324.243 352.009 320C352.009 315.757 350.323 311.687 347.323 308.686C344.322 305.686 340.252 304 336.009 304Z" fill="black"/>
</svg>
